{
  "accessors": [
    {
      "bufferView": 2,
      "componentType": 5126,
      "count": 11884,
      "max": [
        12.52502155303955,
        134.37881469726563,
        21.911996841430664
      ],
      "min": [
        -6.670968055725098,
        97.6790542602539,
        -2.5239999294281006
      ],
      "type": "VEC3"
    },
    {
      "bufferView": 2,
      "byteOffset": 142608,
      "componentType": 5126,
      "count": 11884,
      "max": [
        0.9999978542327881,
        0.9979375004768372,
        0.9996539950370789
      ],
      "min": [
        -0.9999105930328369,
        -1.0,
        -0.9994845390319824
      ],
      "type": "VEC3"
    },
    {
      "bufferView": 3,
      "componentType": 5126,
      "count": 11884,
      "max": [
        0.9996713995933533,
        0.9999962449073792,
        0.9994260668754578,
        1.0
      ],
      "min": [
        -0.9991891384124756,
        -0.9959176182746887,
        -0.9999993443489075,
        -1.0
      ],
      "type": "VEC4"
    },
    {
      "bufferView": 1,
      "componentType": 5126,
      "count": 11884,
      "max": [
        0.9878770112991333,
        0.9890499711036682
      ],
      "min": [
        0.010130999609827995,
        0.0002460000105202198
      ],
      "type": "VEC2"
    },
    {
      "bufferView": 0,
      "componentType": 5125,
      "count": 67056,
      "type": "SCALAR"
    }
  ],
  "asset": {
    "extras": {
      "author": "alroberts1 (https://sketchfab.com/alroberts1)",
      "license": "CC-BY-4.0 (http://creativecommons.org/licenses/by/4.0/)",
      "source": "https://sketchfab.com/3d-models/nike-statue-photocapture-6ee231bfeb824634aef6950cf476fdd0",
      "title": "Nike Statue Photocapture"
    },
    "generator": "Sketchfab-15.39.0",
    "version": "2.0"
  },
  "bufferViews": [
    {
      "buffer": 0,
      "byteLength": 268224,
      "name": "floatBufferViews",
      "target": 34963
    },
    {
      "buffer": 0,
      "byteLength": 95072,
      "byteOffset": 268224,
      "byteStride": 8,
      "name": "floatBufferViews",
      "target": 34962
    },
    {
      "buffer": 0,
      "byteLength": 285216,
      "byteOffset": 363296,
      "byteStride": 12,
      "name": "floatBufferViews",
      "target": 34962
    },
    {
      "buffer": 0,
      "byteLength": 190144,
      "byteOffset": 648512,
      "byteStride": 16,
      "name": "floatBufferViews",
      "target": 34962
    }
  ],
  "buffers": [
    {
      "byteLength": 838656,
      "uri": "scene.bin"
    }
  ],
  "images": [
    {
      "uri": "textures/Nike_LowPoly_baseColor.jpeg"
    },
    {
      "uri": "textures/Nike_LowPoly_metallicRoughness.png"
    },
    {
      "uri": "textures/Nike_LowPoly_normal.png"
    }
  ],
  "materials": [
    {
      "doubleSided": true,
      "name": "Nike_LowPoly",
      "normalTexture": {
        "index": 2
      },
      "pbrMetallicRoughness": {
        "baseColorTexture": {
          "index": 0
        },
        "metallicRoughnessTexture": {
          "index": 1
        }
      }
    }
  ],
  "meshes": [
    {
      "name": "defaultMaterial",
      "primitives": [
        {
          "attributes": {
            "NORMAL": 1,
            "POSITION": 0,
            "TANGENT": 2,
            "TEXCOORD_0": 3
          },
          "indices": 4,
          "material": 0,
          "mode": 4
        }
      ]
    }
  ],
  "nodes": [
    {
      "children": [
        1
      ],
      "matrix": [
        1.0,
        -1.6081226229577292e-16,
        -3.5707495248565405e-32,
        0.0,
        0.0,
        2.220446049250313e-16,
        -1.0,
        0.0,
        1.6081226229577292e-16,
        1.0,
        2.220446049250313e-16,
        0.0,
        0.0,
        0.0,
        0.0,
        1.0
      ],
      "name": "Sketchfab_model"
    },
    {
      "children": [
        2
      ],
      "matrix": [
        1.0,
        0.0,
        0.0,
        0.0,
        0.0,
        -4.371139006309477e-08,
        0.999999999999999,
        0.0,
        0.0,
        -0.999999999999999,
        -4.371139006309477e-08,
        0.0,
        0.0,
        0.0,
        0.0,
        1.0
      ],
      "name": "Collada visual scene group"
    },
    {
      "children": [
        3
      ],
      "matrix": [
        1.0,
        0.0,
        0.0,
        0.0,
        0.0,
        1.0,
        0.0,
        0.0,
        0.0,
        0.0,
        1.0,
        0.0,
        2.058991,
        -98.581375,
        -7.240103,
        1.0
      ],
      "name": "Nike_LowPoly"
    },
    {
      "mesh": 0,
      "name": "defaultMaterial"
    }
  ],
  "samplers": [
    {
      "magFilter": 9729,
      "minFilter": 9987,
      "wrapS": 10497,
      "wrapT": 10497
    }
  ],
  "scene": 0,
  "scenes": [
    {
      "name": "Sketchfab_Scene",
      "nodes": [
        0
      ]
    }
  ],
  "textures": [
    {
      "sampler": 0,
      "source": 0
    },
    {
      "sampler": 0,
      "source": 1
    },
    {
      "sampler": 0,
      "source": 2
    }
  ]
}
